{
	"asset":{
		"generator":"Khronos glTF Blender I/O v3.6.27",
		"version":"2.0"
	},
	"scene":0,
	"scenes":[
		{
			"name":"Scene",
			"nodes":[
				0,
				1,
				2,
				3,
				4,
				5,
				6,
				7,
				8,
				9,
				10
			]
		}
	],
	"nodes":[
		{
			"mesh":0,
			"name":"Cube",
			"rotation":[
				0,
				-0.28721562027931213,
				0,
				0.9578659534454346
			],
			"scale":[
				0.05337640270590782,
				1.0211219787597656,
				0.05337640270590782
			],
			"translation":[
				-1.7313542366027832,
				0.9768941402435303,
				3.682027816772461
			]
		},
		{
			"mesh":1,
			"name":"Cube.001",
			"rotation":[
				0,
				-0.5054135322570801,
				0,
				0.862877368927002
			],
			"scale":[
				0.05337641015648842,
				1.0211219787597656,
				0.05337641015648842
			],
			"translation":[
				-2.9878153800964355,
				0.9768941402435303,
				2.24495530128479
			]
		},
		{
			"mesh":2,
			"name":"Cube.002",
			"rotation":[
				0,
				-0.7681606411933899,
				0,
				0.6402572989463806
			],
			"scale":[
				0.05337641015648842,
				1.0211219787597656,
				0.05337641015648842
			],
			"translation":[
				-3.2710084915161133,
				0.9768941402435303,
				0.4264675974845886
			]
		},
		{
			"mesh":3,
			"name":"Cylinder",
			"rotation":[
				0,
				-0.8804057240486145,
				0,
				0.47422146797180176
			],
			"scale":[
				0.42730748653411865,
				0.42730748653411865,
				0.42730748653411865
			],
			"translation":[
				-0.07382521778345108,
				4.493278980255127,
				-0.1543886363506317
			]
		},
		{
			"mesh":4,
			"name":"Cylinder.001",
			"rotation":[
				0,
				-0.8804057240486145,
				0,
				0.47422146797180176
			],
			"scale":[
				0.42730748653411865,
				0.42730748653411865,
				0.42730748653411865
			],
			"translation":[
				-1.3520421981811523,
				4.493278980255127,
				1.7854061126708984
			]
		},
		{
			"mesh":5,
			"name":"Cylinder.002",
			"rotation":[
				0,
				-0.8804057240486145,
				0,
				0.47422146797180176
			],
			"scale":[
				0.42730748653411865,
				0.42730748653411865,
				0.42730748653411865
			],
			"translation":[
				1.0831012725830078,
				4.493278980255127,
				-1.9101152420043945
			]
		},
		{
			"mesh":6,
			"name":"Cube.003",
			"rotation":[
				0,
				0.9982703924179077,
				0,
				0.05879078432917595
			],
			"scale":[
				0.053376421332359314,
				1.0211219787597656,
				0.053376421332359314
			],
			"translation":[
				0.7852916717529297,
				0.9768941402435303,
				-3.6203432083129883
			]
		},
		{
			"mesh":7,
			"name":"Cube.004",
			"rotation":[
				0,
				0.9561113119125366,
				0,
				0.29300379753112793
			],
			"scale":[
				0.05337640270590782,
				1.0211219787597656,
				0.05337640270590782
			],
			"translation":[
				2.5527517795562744,
				0.9768941402435303,
				-2.899261236190796
			]
		},
		{
			"mesh":8,
			"name":"Cube.005",
			"rotation":[
				0,
				0.8000192642211914,
				0,
				0.5999743342399597
			],
			"scale":[
				0.05337640270590782,
				1.0211219787597656,
				0.05337640270590782
			],
			"translation":[
				3.621310234069824,
				0.9768941402435303,
				-1.4008358716964722
			]
		},
		{
			"mesh":9,
			"name":"Cube.006",
			"rotation":[
				0,
				-0.5054135322570801,
				0,
				0.862877368927002
			],
			"scale":[
				0.05337641015648842,
				1.0211219787597656,
				0.05337641015648842
			],
			"translation":[
				1.105252981185913,
				0.9768941402435303,
				-0.11440083384513855
			]
		},
		{
			"mesh":10,
			"name":"Cube.007",
			"scale":[
				8.901497840881348,
				0.041176266968250275,
				8.901497840881348
			],
			"translation":[
				0,
				-0.07702432572841644,
				0
			]
		}
	],
	"meshes":[
		{
			"name":"Cube.001",
			"primitives":[
				{
					"attributes":{
						"POSITION":0,
						"NORMAL":1,
						"TEXCOORD_0":2
					},
					"indices":3
				}
			]
		},
		{
			"name":"Cube.002",
			"primitives":[
				{
					"attributes":{
						"POSITION":4,
						"NORMAL":5,
						"TEXCOORD_0":6
					},
					"indices":3
				}
			]
		},
		{
			"name":"Cube.003",
			"primitives":[
				{
					"attributes":{
						"POSITION":7,
						"NORMAL":8,
						"TEXCOORD_0":9
					},
					"indices":3
				}
			]
		},
		{
			"name":"Cylinder",
			"primitives":[
				{
					"attributes":{
						"POSITION":10,
						"NORMAL":11,
						"TEXCOORD_0":12
					},
					"indices":13
				}
			]
		},
		{
			"name":"Cylinder.001",
			"primitives":[
				{
					"attributes":{
						"POSITION":14,
						"NORMAL":15,
						"TEXCOORD_0":16
					},
					"indices":13
				}
			]
		},
		{
			"name":"Cylinder.002",
			"primitives":[
				{
					"attributes":{
						"POSITION":17,
						"NORMAL":18,
						"TEXCOORD_0":19
					},
					"indices":13
				}
			]
		},
		{
			"name":"Cube.004",
			"primitives":[
				{
					"attributes":{
						"POSITION":20,
						"NORMAL":21,
						"TEXCOORD_0":22
					},
					"indices":3
				}
			]
		},
		{
			"name":"Cube.005",
			"primitives":[
				{
					"attributes":{
						"POSITION":23,
						"NORMAL":24,
						"TEXCOORD_0":25
					},
					"indices":3
				}
			]
		},
		{
			"name":"Cube.006",
			"primitives":[
				{
					"attributes":{
						"POSITION":26,
						"NORMAL":27,
						"TEXCOORD_0":28
					},
					"indices":3
				}
			]
		},
		{
			"name":"Cube.007",
			"primitives":[
				{
					"attributes":{
						"POSITION":29,
						"NORMAL":30,
						"TEXCOORD_0":31
					},
					"indices":3
				}
			]
		},
		{
			"name":"Cube.008",
			"primitives":[
				{
					"attributes":{
						"POSITION":32,
						"NORMAL":33,
						"TEXCOORD_0":34
					},
					"indices":35
				}
			]
		}
	],
	"accessors":[
		{
			"bufferView":0,
			"componentType":5126,
			"count":324,
			"max":[
				17.01110076904297,
				1,
				1
			],
			"min":[
				-17.01110076904297,
				-1,
				-1
			],
			"type":"VEC3"
		},
		{
			"bufferView":1,
			"componentType":5126,
			"count":324,
			"type":"VEC3"
		},
		{
			"bufferView":2,
			"componentType":5126,
			"count":324,
			"type":"VEC2"
		},
		{
			"bufferView":3,
			"componentType":5123,
			"count":840,
			"type":"SCALAR"
		},
		{
			"bufferView":4,
			"componentType":5126,
			"count":324,
			"max":[
				17.01110076904297,
				1,
				1
			],
			"min":[
				-17.01110076904297,
				-1,
				-1
			],
			"type":"VEC3"
		},
		{
			"bufferView":5,
			"componentType":5126,
			"count":324,
			"type":"VEC3"
		},
		{
			"bufferView":6,
			"componentType":5126,
			"count":324,
			"type":"VEC2"
		},
		{
			"bufferView":7,
			"componentType":5126,
			"count":324,
			"max":[
				17.01110076904297,
				1,
				1
			],
			"min":[
				-17.01110076904297,
				-1,
				-1
			],
			"type":"VEC3"
		},
		{
			"bufferView":8,
			"componentType":5126,
			"count":324,
			"type":"VEC3"
		},
		{
			"bufferView":9,
			"componentType":5126,
			"count":324,
			"type":"VEC2"
		},
		{
			"bufferView":10,
			"componentType":5126,
			"count":227,
			"max":[
				0.9999995827674866,
				5.490924835205078,
				4.945926666259766
			],
			"min":[
				-1.0000003576278687,
				-10.625992774963379,
				-2.620389223098755
			],
			"type":"VEC3"
		},
		{
			"bufferView":11,
			"componentType":5126,
			"count":227,
			"type":"VEC3"
		},
		{
			"bufferView":12,
			"componentType":5126,
			"count":227,
			"type":"VEC2"
		},
		{
			"bufferView":13,
			"componentType":5123,
			"count":1170,
			"type":"SCALAR"
		},
		{
			"bufferView":14,
			"componentType":5126,
			"count":227,
			"max":[
				0.9999995827674866,
				5.490924835205078,
				4.945926666259766
			],
			"min":[
				-1.0000003576278687,
				-10.625992774963379,
				-2.620389223098755
			],
			"type":"VEC3"
		},
		{
			"bufferView":15,
			"componentType":5126,
			"count":227,
			"type":"VEC3"
		},
		{
			"bufferView":16,
			"componentType":5126,
			"count":227,
			"type":"VEC2"
		},
		{
			"bufferView":17,
			"componentType":5126,
			"count":227,
			"max":[
				0.9999995827674866,
				5.490924835205078,
				4.945926666259766
			],
			"min":[
				-1.0000003576278687,
				-10.625992774963379,
				-2.620389223098755
			],
			"type":"VEC3"
		},
		{
			"bufferView":18,
			"componentType":5126,
			"count":227,
			"type":"VEC3"
		},
		{
			"bufferView":19,
			"componentType":5126,
			"count":227,
			"type":"VEC2"
		},
		{
			"bufferView":20,
			"componentType":5126,
			"count":324,
			"max":[
				17.01110076904297,
				1,
				1
			],
			"min":[
				-17.01110076904297,
				-1,
				-1
			],
			"type":"VEC3"
		},
		{
			"bufferView":21,
			"componentType":5126,
			"count":324,
			"type":"VEC3"
		},
		{
			"bufferView":22,
			"componentType":5126,
			"count":324,
			"type":"VEC2"
		},
		{
			"bufferView":23,
			"componentType":5126,
			"count":324,
			"max":[
				17.01110076904297,
				1,
				1
			],
			"min":[
				-17.01110076904297,
				-1,
				-1
			],
			"type":"VEC3"
		},
		{
			"bufferView":24,
			"componentType":5126,
			"count":324,
			"type":"VEC3"
		},
		{
			"bufferView":25,
			"componentType":5126,
			"count":324,
			"type":"VEC2"
		},
		{
			"bufferView":26,
			"componentType":5126,
			"count":324,
			"max":[
				17.01110076904297,
				1,
				1
			],
			"min":[
				-17.01110076904297,
				-1,
				-1
			],
			"type":"VEC3"
		},
		{
			"bufferView":27,
			"componentType":5126,
			"count":324,
			"type":"VEC3"
		},
		{
			"bufferView":28,
			"componentType":5126,
			"count":324,
			"type":"VEC2"
		},
		{
			"bufferView":29,
			"componentType":5126,
			"count":324,
			"max":[
				17.01110076904297,
				1,
				1
			],
			"min":[
				-17.01110076904297,
				-1,
				-1
			],
			"type":"VEC3"
		},
		{
			"bufferView":30,
			"componentType":5126,
			"count":324,
			"type":"VEC3"
		},
		{
			"bufferView":31,
			"componentType":5126,
			"count":324,
			"type":"VEC2"
		},
		{
			"bufferView":32,
			"componentType":5126,
			"count":24,
			"max":[
				1,
				1,
				1
			],
			"min":[
				-1,
				-1,
				-1
			],
			"type":"VEC3"
		},
		{
			"bufferView":33,
			"componentType":5126,
			"count":24,
			"type":"VEC3"
		},
		{
			"bufferView":34,
			"componentType":5126,
			"count":24,
			"type":"VEC2"
		},
		{
			"bufferView":35,
			"componentType":5123,
			"count":36,
			"type":"SCALAR"
		}
	],
	"bufferViews":[
		{
			"buffer":0,
			"byteLength":3888,
			"byteOffset":0,
			"target":34962
		},
		{
			"buffer":0,
			"byteLength":3888,
			"byteOffset":3888,
			"target":34962
		},
		{
			"buffer":0,
			"byteLength":2592,
			"byteOffset":7776,
			"target":34962
		},
		{
			"buffer":0,
			"byteLength":1680,
			"byteOffset":10368,
			"target":34963
		},
		{
			"buffer":0,
			"byteLength":3888,
			"byteOffset":12048,
			"target":34962
		},
		{
			"buffer":0,
			"byteLength":3888,
			"byteOffset":15936,
			"target":34962
		},
		{
			"buffer":0,
			"byteLength":2592,
			"byteOffset":19824,
			"target":34962
		},
		{
			"buffer":0,
			"byteLength":3888,
			"byteOffset":22416,
			"target":34962
		},
		{
			"buffer":0,
			"byteLength":3888,
			"byteOffset":26304,
			"target":34962
		},
		{
			"buffer":0,
			"byteLength":2592,
			"byteOffset":30192,
			"target":34962
		},
		{
			"buffer":0,
			"byteLength":2724,
			"byteOffset":32784,
			"target":34962
		},
		{
			"buffer":0,
			"byteLength":2724,
			"byteOffset":35508,
			"target":34962
		},
		{
			"buffer":0,
			"byteLength":1816,
			"byteOffset":38232,
			"target":34962
		},
		{
			"buffer":0,
			"byteLength":2340,
			"byteOffset":40048,
			"target":34963
		},
		{
			"buffer":0,
			"byteLength":2724,
			"byteOffset":42388,
			"target":34962
		},
		{
			"buffer":0,
			"byteLength":2724,
			"byteOffset":45112,
			"target":34962
		},
		{
			"buffer":0,
			"byteLength":1816,
			"byteOffset":47836,
			"target":34962
		},
		{
			"buffer":0,
			"byteLength":2724,
			"byteOffset":49652,
			"target":34962
		},
		{
			"buffer":0,
			"byteLength":2724,
			"byteOffset":52376,
			"target":34962
		},
		{
			"buffer":0,
			"byteLength":1816,
			"byteOffset":55100,
			"target":34962
		},
		{
			"buffer":0,
			"byteLength":3888,
			"byteOffset":56916,
			"target":34962
		},
		{
			"buffer":0,
			"byteLength":3888,
			"byteOffset":60804,
			"target":34962
		},
		{
			"buffer":0,
			"byteLength":2592,
			"byteOffset":64692,
			"target":34962
		},
		{
			"buffer":0,
			"byteLength":3888,
			"byteOffset":67284,
			"target":34962
		},
		{
			"buffer":0,
			"byteLength":3888,
			"byteOffset":71172,
			"target":34962
		},
		{
			"buffer":0,
			"byteLength":2592,
			"byteOffset":75060,
			"target":34962
		},
		{
			"buffer":0,
			"byteLength":3888,
			"byteOffset":77652,
			"target":34962
		},
		{
			"buffer":0,
			"byteLength":3888,
			"byteOffset":81540,
			"target":34962
		},
		{
			"buffer":0,
			"byteLength":2592,
			"byteOffset":85428,
			"target":34962
		},
		{
			"buffer":0,
			"byteLength":3888,
			"byteOffset":88020,
			"target":34962
		},
		{
			"buffer":0,
			"byteLength":3888,
			"byteOffset":91908,
			"target":34962
		},
		{
			"buffer":0,
			"byteLength":2592,
			"byteOffset":95796,
			"target":34962
		},
		{
			"buffer":0,
			"byteLength":288,
			"byteOffset":98388,
			"target":34962
		},
		{
			"buffer":0,
			"byteLength":288,
			"byteOffset":98676,
			"target":34962
		},
		{
			"buffer":0,
			"byteLength":192,
			"byteOffset":98964,
			"target":34962
		},
		{
			"buffer":0,
			"byteLength":72,
			"byteOffset":99156,
			"target":34963
		}
	],
	"buffers":[
		{
			"byteLength":99228,
			"uri":"shadowTest.bin"
		}
	]
}
