{
	"asset":{
		"generator":"Khronos glTF Blender I/O v3.6.27",
		"version":"2.0"
	},
	"scene":0,
	"scenes":[
		{
			"name":"Scene",
			"nodes":[
				3,
				4
			]
		}
	],
	"nodes":[
		{
			"mesh":0,
			"name":"Object_2",
			"translation":[
				0,
				0.020414169877767563,
				0
			]
		},
		{
			"mesh":1,
			"name":"Object_3",
			"translation":[
				0,
				0.020414169877767563,
				0
			]
		},
		{
			"children":[
				0,
				1
			],
			"name":"Apollo and Daphne.obj.cleaner.materialmerger.gles"
		},
		{
			"children":[
				2
			],
			"name":"Sketchfab_model",
			"rotation":[
				-0.5684302449226379,
				0,
				0.8227314352989197,
				1.9805202611713883e-16
			],
			"scale":[
				10,
				9.999999046325684,
				10
			]
		},
		{
			"mesh":2,
			"name":"Cube",
			"scale":[
				5.741352081298828,
				0.04479566216468811,
				5.741352081298828
			],
			"translation":[
				0,
				-0.06804722547531128,
				0
			]
		}
	],
	"materials":[
		{
			"doubleSided":true,
			"name":"Apollo_and_Daphne_Mats",
			"normalTexture":{
				"index":0
			},
			"pbrMetallicRoughness":{
				"baseColorTexture":{
					"index":1
				},
				"metallicFactor":0,
				"metallicRoughnessTexture":{
					"index":2
				}
			}
		}
	],
	"meshes":[
		{
			"name":"Object_0",
			"primitives":[
				{
					"attributes":{
						"POSITION":0,
						"NORMAL":1,
						"TEXCOORD_0":2
					},
					"indices":3,
					"material":0
				}
			]
		},
		{
			"name":"Object_1",
			"primitives":[
				{
					"attributes":{
						"POSITION":4,
						"NORMAL":5,
						"TEXCOORD_0":6
					},
					"indices":7,
					"material":0
				}
			]
		},
		{
			"name":"Cube.001",
			"primitives":[
				{
					"attributes":{
						"POSITION":8,
						"NORMAL":9,
						"TEXCOORD_0":10
					},
					"indices":11
				}
			]
		}
	],
	"textures":[
		{
			"sampler":0,
			"source":0
		},
		{
			"sampler":0,
			"source":1
		},
		{
			"sampler":0,
			"source":2
		}
	],
	"images":[
		{
			"mimeType":"image/jpeg",
			"name":"Apollo_and_Daphne_Mats_normal",
			"uri":"textures/Apollo_and_Daphne_Mats_normal.jpg"
		},
		{
			"mimeType":"image/jpeg",
			"name":"Apollo_and_Daphne_Mats_baseColor",
			"uri":"textures/Apollo_and_Daphne_Mats_baseColor.jpg"
		},
		{
			"mimeType":"image/png",
			"name":"Apollo_and_Daphne_Mats_metallicRoughness",
			"uri":"textures/Apollo_and_Daphne_Mats_metallicRoughness.png"
		}
	],
	"accessors":[
		{
			"bufferView":0,
			"componentType":5126,
			"count":65975,
			"max":[
				0.1233849972486496,
				-0.01370800007134676,
				0.15219199657440186
			],
			"min":[
				-0.1500999927520752,
				-0.567205011844635,
				-0.1999019980430603
			],
			"type":"VEC3"
		},
		{
			"bufferView":1,
			"componentType":5126,
			"count":65975,
			"type":"VEC3"
		},
		{
			"bufferView":2,
			"componentType":5126,
			"count":65975,
			"type":"VEC2"
		},
		{
			"bufferView":3,
			"componentType":5125,
			"count":200778,
			"type":"SCALAR"
		},
		{
			"bufferView":4,
			"componentType":5126,
			"count":54440,
			"max":[
				0.08965200185775757,
				-0.01370800007134676,
				0.14544999599456787
			],
			"min":[
				-0.1327109932899475,
				-0.47824299335479736,
				-0.1908150017261505
			],
			"type":"VEC3"
		},
		{
			"bufferView":5,
			"componentType":5126,
			"count":54440,
			"type":"VEC3"
		},
		{
			"bufferView":6,
			"componentType":5126,
			"count":54440,
			"type":"VEC2"
		},
		{
			"bufferView":7,
			"componentType":5123,
			"count":156060,
			"type":"SCALAR"
		},
		{
			"bufferView":8,
			"componentType":5126,
			"count":24,
			"max":[
				1,
				1,
				1
			],
			"min":[
				-1,
				-1,
				-1
			],
			"type":"VEC3"
		},
		{
			"bufferView":9,
			"componentType":5126,
			"count":24,
			"type":"VEC3"
		},
		{
			"bufferView":10,
			"componentType":5126,
			"count":24,
			"type":"VEC2"
		},
		{
			"bufferView":11,
			"componentType":5123,
			"count":36,
			"type":"SCALAR"
		}
	],
	"bufferViews":[
		{
			"buffer":0,
			"byteLength":791700,
			"byteOffset":0,
			"target":34962
		},
		{
			"buffer":0,
			"byteLength":791700,
			"byteOffset":791700,
			"target":34962
		},
		{
			"buffer":0,
			"byteLength":527800,
			"byteOffset":1583400,
			"target":34962
		},
		{
			"buffer":0,
			"byteLength":803112,
			"byteOffset":2111200,
			"target":34963
		},
		{
			"buffer":0,
			"byteLength":653280,
			"byteOffset":2914312,
			"target":34962
		},
		{
			"buffer":0,
			"byteLength":653280,
			"byteOffset":3567592,
			"target":34962
		},
		{
			"buffer":0,
			"byteLength":435520,
			"byteOffset":4220872,
			"target":34962
		},
		{
			"buffer":0,
			"byteLength":312120,
			"byteOffset":4656392,
			"target":34963
		},
		{
			"buffer":0,
			"byteLength":288,
			"byteOffset":4968512,
			"target":34962
		},
		{
			"buffer":0,
			"byteLength":288,
			"byteOffset":4968800,
			"target":34962
		},
		{
			"buffer":0,
			"byteLength":192,
			"byteOffset":4969088,
			"target":34962
		},
		{
			"buffer":0,
			"byteLength":72,
			"byteOffset":4969280,
			"target":34963
		}
	],
	"samplers":[
		{
			"magFilter":9729,
			"minFilter":9987
		}
	],
	"buffers":[
		{
			"byteLength":4969352,
			"uri":"scene.bin"
		}
	]
}
