{
	"asset":{
		"generator":"Khronos glTF Blender I/O v3.6.27",
		"version":"2.0"
	},
	"scene":0,
	"scenes":[
		{
			"name":"Scene",
			"nodes":[
				0
			]
		}
	],
	"nodes":[
		{
			"mesh":0,
			"name":"node_damagedHelmet_-6514",
			"rotation":[
				0.70710688829422,
				0,
				0,
				0.7071066498756409
			]
		}
	],
	"materials":[
		{
			"emissiveFactor":[
				1,
				1,
				1
			],
			"emissiveTexture":{
				"index":0
			},
			"name":"Material_MR",
			"normalTexture":{
				"index":1
			},
			"occlusionTexture":{
				"index":2
			},
			"pbrMetallicRoughness":{
				"baseColorTexture":{
					"index":3
				},
				"metallicRoughnessTexture":{
					"index":2
				}
			}
		}
	],
	"meshes":[
		{
			"name":"mesh_helmet_LP_13930damagedHelmet",
			"primitives":[
				{
					"attributes":{
						"POSITION":0,
						"NORMAL":1,
						"TEXCOORD_0":2
					},
					"indices":3,
					"material":0
				}
			]
		}
	],
	"textures":[
		{
			"sampler":0,
			"source":0
		},
		{
			"sampler":0,
			"source":1
		},
		{
			"sampler":0,
			"source":2
		},
		{
			"sampler":0,
			"source":3
		}
	],
	"images":[
		{
			"mimeType":"image/jpeg",
			"name":"Image_2",
			"uri":"textures/Image_2.jpg"
		},
		{
			"mimeType":"image/jpeg",
			"name":"Image_4",
			"uri":"textures/Image_4.jpg"
		},
		{
			"mimeType":"image/png",
			"name":"Image_3-Image_1",
			"uri":"textures/Image_3-Image_1.png"
		},
		{
			"mimeType":"image/jpeg",
			"name":"Image_0",
			"uri":"textures/Image_0.jpg"
		}
	],
	"accessors":[
		{
			"bufferView":0,
			"componentType":5126,
			"count":14588,
			"max":[
				0.9424954056739807,
				0.8128451108932495,
				0.900973916053772
			],
			"min":[
				-0.9474585652351379,
				-1.18715500831604,
				-0.9009949564933777
			],
			"type":"VEC3"
		},
		{
			"bufferView":1,
			"componentType":5126,
			"count":14588,
			"type":"VEC3"
		},
		{
			"bufferView":2,
			"componentType":5126,
			"count":14588,
			"type":"VEC2"
		},
		{
			"bufferView":3,
			"componentType":5123,
			"count":46356,
			"type":"SCALAR"
		}
	],
	"bufferViews":[
		{
			"buffer":0,
			"byteLength":175056,
			"byteOffset":0,
			"target":34962
		},
		{
			"buffer":0,
			"byteLength":175056,
			"byteOffset":175056,
			"target":34962
		},
		{
			"buffer":0,
			"byteLength":116704,
			"byteOffset":350112,
			"target":34962
		},
		{
			"buffer":0,
			"byteLength":92712,
			"byteOffset":466816,
			"target":34963
		}
	],
	"samplers":[
		{
			"magFilter":9729,
			"minFilter":9987
		}
	],
	"buffers":[
		{
			"byteLength":559528,
			"uri":"scene.bin"
		}
	]
}
